<mxfile host="app.diagrams.net" agent="Mozilla/5.0 (Macintosh; Intel Mac OS X 10_15_7) AppleWebKit/537.36 (KHTML, like Gecko) Chrome/138.0.0.0 Safari/537.36" version="25.0.3">
  <diagram id="Ht1M8jgEwFfnCIfOTk4-" name="Page-1">
    <mxGraphModel dx="1566" dy="968" grid="1" gridSize="10" guides="1" tooltips="1" connect="1" arrows="1" fold="1" page="1" pageScale="1" pageWidth="1169" pageHeight="827" math="0" shadow="0">
      <root>
        <mxCell id="0" />
        <mxCell id="1" parent="0" />
        <mxCell id="01jZKqPiucmeH9G5_iEM-62" value="" style="edgeStyle=orthogonalEdgeStyle;html=1;endArrow=block;elbow=vertical;startArrow=none;endFill=1;strokeColor=#545B64;rounded=0;exitX=0.5;exitY=1;exitDx=0;exitDy=0;exitPerimeter=0;entryX=0;entryY=0.5;entryDx=0;entryDy=0;" edge="1" parent="1" source="01jZKqPiucmeH9G5_iEM-46" target="01jZKqPiucmeH9G5_iEM-64">
          <mxGeometry width="100" relative="1" as="geometry">
            <mxPoint x="540" y="290" as="sourcePoint" />
            <mxPoint x="630" y="340" as="targetPoint" />
          </mxGeometry>
        </mxCell>
        <mxCell id="01jZKqPiucmeH9G5_iEM-60" value="" style="fillColor=none;strokeColor=#5A6C86;dashed=1;verticalAlign=top;fontStyle=0;fontColor=#5A6C86;whiteSpace=wrap;html=1;" vertex="1" parent="1">
          <mxGeometry x="266" y="62" width="130" height="438" as="geometry" />
        </mxCell>
        <mxCell id="01jZKqPiucmeH9G5_iEM-29" value="" style="sketch=0;outlineConnect=0;fontColor=#232F3E;gradientColor=none;fillColor=#DD344C;strokeColor=none;dashed=0;verticalLabelPosition=bottom;verticalAlign=top;align=center;html=1;fontSize=12;fontStyle=0;aspect=fixed;pointerEvents=1;shape=mxgraph.aws4.access_analyzer;" vertex="1" parent="1">
          <mxGeometry x="349.5" y="683" width="78" height="77" as="geometry" />
        </mxCell>
        <mxCell id="01jZKqPiucmeH9G5_iEM-30" value="" style="sketch=0;outlineConnect=0;fontColor=#232F3E;gradientColor=none;fillColor=#DD344C;strokeColor=none;dashed=0;verticalLabelPosition=bottom;verticalAlign=top;align=center;html=1;fontSize=12;fontStyle=0;aspect=fixed;pointerEvents=1;shape=mxgraph.aws4.identity_access_management_iam_roles_anywhere;" vertex="1" parent="1">
          <mxGeometry x="498.5" y="683" width="78" height="78" as="geometry" />
        </mxCell>
        <mxCell id="01jZKqPiucmeH9G5_iEM-31" value="IAM Access Analyzer" style="text;html=1;align=center;verticalAlign=middle;resizable=0;points=[];autosize=1;strokeColor=none;fillColor=none;" vertex="1" parent="1">
          <mxGeometry x="318.5" y="760" width="140" height="30" as="geometry" />
        </mxCell>
        <mxCell id="01jZKqPiucmeH9G5_iEM-32" value="IAM Roles Anywhere" style="text;html=1;align=center;verticalAlign=middle;resizable=0;points=[];autosize=1;strokeColor=none;fillColor=none;" vertex="1" parent="1">
          <mxGeometry x="465.5" y="760" width="130" height="30" as="geometry" />
        </mxCell>
        <mxCell id="01jZKqPiucmeH9G5_iEM-43" value="" style="sketch=0;outlineConnect=0;fontColor=#232F3E;gradientColor=none;fillColor=#E7157B;strokeColor=none;dashed=0;verticalLabelPosition=bottom;verticalAlign=top;align=center;html=1;fontSize=12;fontStyle=0;aspect=fixed;pointerEvents=1;shape=mxgraph.aws4.cloudwatch_logs;" vertex="1" parent="1">
          <mxGeometry x="683" y="683" width="78" height="58" as="geometry" />
        </mxCell>
        <mxCell id="01jZKqPiucmeH9G5_iEM-44" value="Amazon CloudWatch&lt;div&gt;(Log)&lt;/div&gt;" style="text;html=1;align=center;verticalAlign=middle;resizable=0;points=[];autosize=1;strokeColor=none;fillColor=none;" vertex="1" parent="1">
          <mxGeometry x="652" y="740" width="140" height="40" as="geometry" />
        </mxCell>
        <mxCell id="01jZKqPiucmeH9G5_iEM-50" value="" style="edgeStyle=orthogonalEdgeStyle;html=1;endArrow=block;elbow=vertical;startArrow=none;endFill=1;strokeColor=#545B64;rounded=0;entryX=0;entryY=0.5;entryDx=0;entryDy=0;entryPerimeter=0;exitX=0.5;exitY=0;exitDx=0;exitDy=0;exitPerimeter=0;" edge="1" parent="1" source="01jZKqPiucmeH9G5_iEM-46" target="01jZKqPiucmeH9G5_iEM-34">
          <mxGeometry width="100" relative="1" as="geometry">
            <mxPoint x="557" y="104.63" as="sourcePoint" />
            <mxPoint x="657" y="104.63" as="targetPoint" />
          </mxGeometry>
        </mxCell>
        <mxCell id="01jZKqPiucmeH9G5_iEM-51" value="" style="sketch=0;points=[[0,0,0],[0.25,0,0],[0.5,0,0],[0.75,0,0],[1,0,0],[0,1,0],[0.25,1,0],[0.5,1,0],[0.75,1,0],[1,1,0],[0,0.25,0],[0,0.5,0],[0,0.75,0],[1,0.25,0],[1,0.5,0],[1,0.75,0]];outlineConnect=0;fontColor=#232F3E;fillColor=#E7157B;strokeColor=#ffffff;dashed=0;verticalLabelPosition=bottom;verticalAlign=top;align=center;html=1;fontSize=12;fontStyle=0;aspect=fixed;shape=mxgraph.aws4.resourceIcon;resIcon=mxgraph.aws4.sns;" vertex="1" parent="1">
          <mxGeometry x="818" y="231" width="78" height="78" as="geometry" />
        </mxCell>
        <mxCell id="01jZKqPiucmeH9G5_iEM-52" value="&lt;span style=&quot;background-color: initial;&quot;&gt;Simple Notification&amp;nbsp;&lt;/span&gt;&lt;div&gt;&lt;span style=&quot;background-color: initial;&quot;&gt;Service&lt;/span&gt;&lt;/div&gt;" style="text;html=1;align=center;verticalAlign=middle;resizable=0;points=[];autosize=1;strokeColor=none;fillColor=none;" vertex="1" parent="1">
          <mxGeometry x="793" y="304" width="130" height="40" as="geometry" />
        </mxCell>
        <mxCell id="01jZKqPiucmeH9G5_iEM-11" value="DynamoDB" style="text;html=1;align=center;verticalAlign=middle;resizable=0;points=[];autosize=1;strokeColor=none;fillColor=none;" vertex="1" parent="1">
          <mxGeometry x="659" y="168" width="80" height="30" as="geometry" />
        </mxCell>
        <mxCell id="01jZKqPiucmeH9G5_iEM-34" value="" style="sketch=0;points=[[0,0,0],[0.25,0,0],[0.5,0,0],[0.75,0,0],[1,0,0],[0,1,0],[0.25,1,0],[0.5,1,0],[0.75,1,0],[1,1,0],[0,0.25,0],[0,0.5,0],[0,0.75,0],[1,0.25,0],[1,0.5,0],[1,0.75,0]];outlineConnect=0;fontColor=#232F3E;fillColor=#C925D1;strokeColor=#ffffff;dashed=0;verticalLabelPosition=bottom;verticalAlign=top;align=center;html=1;fontSize=12;fontStyle=0;aspect=fixed;shape=mxgraph.aws4.resourceIcon;resIcon=mxgraph.aws4.dynamodb;" vertex="1" parent="1">
          <mxGeometry x="660" y="90" width="78" height="78" as="geometry" />
        </mxCell>
        <mxCell id="01jZKqPiucmeH9G5_iEM-46" value="" style="sketch=0;points=[[0,0,0],[0.25,0,0],[0.5,0,0],[0.75,0,0],[1,0,0],[0,1,0],[0.25,1,0],[0.5,1,0],[0.75,1,0],[1,1,0],[0,0.25,0],[0,0.5,0],[0,0.75,0],[1,0.25,0],[1,0.5,0],[1,0.75,0]];outlineConnect=0;fontColor=#232F3E;fillColor=#ED7100;strokeColor=#ffffff;dashed=0;verticalLabelPosition=bottom;verticalAlign=top;align=center;html=1;fontSize=12;fontStyle=0;aspect=fixed;shape=mxgraph.aws4.resourceIcon;resIcon=mxgraph.aws4.lambda;" vertex="1" parent="1">
          <mxGeometry x="490" y="160" width="78" height="78" as="geometry" />
        </mxCell>
        <mxCell id="01jZKqPiucmeH9G5_iEM-23" value="AWS Lambda" style="text;html=1;align=center;verticalAlign=middle;resizable=0;points=[];autosize=1;strokeColor=none;fillColor=default;" vertex="1" parent="1">
          <mxGeometry x="479" y="238" width="100" height="30" as="geometry" />
        </mxCell>
        <mxCell id="01jZKqPiucmeH9G5_iEM-48" value="" style="sketch=0;points=[[0,0,0],[0.25,0,0],[0.5,0,0],[0.75,0,0],[1,0,0],[0,1,0],[0.25,1,0],[0.5,1,0],[0.75,1,0],[1,1,0],[0,0.25,0],[0,0.5,0],[0,0.75,0],[1,0.25,0],[1,0.5,0],[1,0.75,0]];outlineConnect=0;fontColor=#232F3E;fillColor=#E7157B;strokeColor=#ffffff;dashed=0;verticalLabelPosition=bottom;verticalAlign=top;align=center;html=1;fontSize=12;fontStyle=0;aspect=fixed;shape=mxgraph.aws4.resourceIcon;resIcon=mxgraph.aws4.api_gateway;" vertex="1" parent="1">
          <mxGeometry x="292" y="90" width="78" height="78" as="geometry" />
        </mxCell>
        <mxCell id="01jZKqPiucmeH9G5_iEM-12" value="API Gateway" style="text;html=1;align=center;verticalAlign=middle;resizable=0;points=[];autosize=1;strokeColor=none;fillColor=none;" vertex="1" parent="1">
          <mxGeometry x="284" y="168" width="90" height="30" as="geometry" />
        </mxCell>
        <mxCell id="01jZKqPiucmeH9G5_iEM-49" value="" style="sketch=0;points=[[0,0,0],[0.25,0,0],[0.5,0,0],[0.75,0,0],[1,0,0],[0,1,0],[0.25,1,0],[0.5,1,0],[0.75,1,0],[1,1,0],[0,0.25,0],[0,0.5,0],[0,0.75,0],[1,0.25,0],[1,0.5,0],[1,0.75,0]];outlineConnect=0;fontColor=#232F3E;fillColor=#7AA116;strokeColor=#ffffff;dashed=0;verticalLabelPosition=bottom;verticalAlign=top;align=center;html=1;fontSize=12;fontStyle=0;aspect=fixed;shape=mxgraph.aws4.resourceIcon;resIcon=mxgraph.aws4.s3;" vertex="1" parent="1">
          <mxGeometry x="290" y="230" width="78" height="78" as="geometry" />
        </mxCell>
        <mxCell id="01jZKqPiucmeH9G5_iEM-18" value="Amazon S3" style="text;html=1;align=center;verticalAlign=middle;resizable=0;points=[];autosize=1;strokeColor=none;fillColor=none;" vertex="1" parent="1">
          <mxGeometry x="284" y="308" width="90" height="30" as="geometry" />
        </mxCell>
        <mxCell id="01jZKqPiucmeH9G5_iEM-61" value="" style="edgeStyle=orthogonalEdgeStyle;html=1;endArrow=block;elbow=vertical;startArrow=none;endFill=1;strokeColor=#545B64;rounded=0;" edge="1" parent="1">
          <mxGeometry width="100" relative="1" as="geometry">
            <mxPoint x="400" y="200" as="sourcePoint" />
            <mxPoint x="490" y="200" as="targetPoint" />
          </mxGeometry>
        </mxCell>
        <mxCell id="01jZKqPiucmeH9G5_iEM-26" value="" style="sketch=0;points=[[0,0,0],[0.25,0,0],[0.5,0,0],[0.75,0,0],[1,0,0],[0,1,0],[0.25,1,0],[0.5,1,0],[0.75,1,0],[1,1,0],[0,0.25,0],[0,0.5,0],[0,0.75,0],[1,0.25,0],[1,0.5,0],[1,0.75,0]];outlineConnect=0;fontColor=#232F3E;fillColor=#DD344C;strokeColor=#ffffff;dashed=0;verticalLabelPosition=bottom;verticalAlign=top;align=center;html=1;fontSize=12;fontStyle=0;aspect=fixed;shape=mxgraph.aws4.resourceIcon;resIcon=mxgraph.aws4.cognito;" vertex="1" parent="1">
          <mxGeometry x="290" y="360" width="78" height="78" as="geometry" />
        </mxCell>
        <mxCell id="01jZKqPiucmeH9G5_iEM-21" value="Cognito" style="text;html=1;align=center;verticalAlign=middle;resizable=0;points=[];autosize=1;strokeColor=none;fillColor=none;" vertex="1" parent="1">
          <mxGeometry x="299" y="438" width="60" height="30" as="geometry" />
        </mxCell>
        <mxCell id="01jZKqPiucmeH9G5_iEM-63" value="Security" style="fillColor=none;strokeColor=#DD3522;verticalAlign=top;fontStyle=0;fontColor=#DD3522;whiteSpace=wrap;html=1;" vertex="1" parent="1">
          <mxGeometry x="266" y="338" width="130" height="130" as="geometry" />
        </mxCell>
        <mxCell id="01jZKqPiucmeH9G5_iEM-36" value="" style="sketch=0;points=[[0,0,0],[0.25,0,0],[0.5,0,0],[0.75,0,0],[1,0,0],[0,1,0],[0.25,1,0],[0.5,1,0],[0.75,1,0],[1,1,0],[0,0.25,0],[0,0.5,0],[0,0.75,0],[1,0.25,0],[1,0.5,0],[1,0.75,0]];points=[[0,0,0],[0.25,0,0],[0.5,0,0],[0.75,0,0],[1,0,0],[0,1,0],[0.25,1,0],[0.5,1,0],[0.75,1,0],[1,1,0],[0,0.25,0],[0,0.5,0],[0,0.75,0],[1,0.25,0],[1,0.5,0],[1,0.75,0]];outlineConnect=0;fontColor=#232F3E;fillColor=#E7157B;strokeColor=#ffffff;dashed=0;verticalLabelPosition=bottom;verticalAlign=top;align=center;html=1;fontSize=12;fontStyle=0;aspect=fixed;shape=mxgraph.aws4.resourceIcon;resIcon=mxgraph.aws4.cloudwatch_2;" vertex="1" parent="1">
          <mxGeometry x="818" y="350" width="78" height="78" as="geometry" />
        </mxCell>
        <mxCell id="01jZKqPiucmeH9G5_iEM-40" value="" style="sketch=0;outlineConnect=0;fontColor=#232F3E;gradientColor=none;fillColor=#E7157B;strokeColor=none;dashed=0;verticalLabelPosition=bottom;verticalAlign=top;align=center;html=1;fontSize=12;fontStyle=0;aspect=fixed;pointerEvents=1;shape=mxgraph.aws4.alarm;" vertex="1" parent="1">
          <mxGeometry x="818" y="474" width="78" height="78" as="geometry" />
        </mxCell>
        <mxCell id="01jZKqPiucmeH9G5_iEM-41" value="CloudWatch&lt;div&gt;Alarms&lt;/div&gt;" style="text;html=1;align=center;verticalAlign=middle;resizable=0;points=[];autosize=1;strokeColor=none;fillColor=none;" vertex="1" parent="1">
          <mxGeometry x="812" y="552" width="90" height="40" as="geometry" />
        </mxCell>
        <mxCell id="01jZKqPiucmeH9G5_iEM-39" value="Amazon CloudWatch&lt;div&gt;(Custom Metrics)&lt;/div&gt;" style="text;html=1;align=center;verticalAlign=middle;resizable=0;points=[];autosize=1;strokeColor=none;fillColor=none;" vertex="1" parent="1">
          <mxGeometry x="787" y="428" width="140" height="40" as="geometry" />
        </mxCell>
        <mxCell id="01jZKqPiucmeH9G5_iEM-64" value="" style="fillColor=none;strokeColor=#5A6C86;dashed=1;verticalAlign=top;fontStyle=0;fontColor=#5A6C86;whiteSpace=wrap;html=1;" vertex="1" parent="1">
          <mxGeometry x="793" y="220" width="130" height="376" as="geometry" />
        </mxCell>
        <mxCell id="01jZKqPiucmeH9G5_iEM-65" value="&lt;span style=&quot;color: rgb(0, 0, 0); text-wrap-mode: nowrap;&quot;&gt;Identity and Access Management&lt;/span&gt;" style="fillColor=none;strokeColor=#5A6C86;dashed=1;verticalAlign=top;fontStyle=0;fontColor=#5A6C86;whiteSpace=wrap;html=1;" vertex="1" parent="1">
          <mxGeometry x="317" y="660" width="311" height="130" as="geometry" />
        </mxCell>
        <mxCell id="01jZKqPiucmeH9G5_iEM-66" value="Security" style="fillColor=none;strokeColor=#DD3522;verticalAlign=top;fontStyle=0;fontColor=#DD3522;whiteSpace=wrap;html=1;" vertex="1" parent="1">
          <mxGeometry x="240" y="630" width="710" height="180" as="geometry" />
        </mxCell>
        <mxCell id="01jZKqPiucmeH9G5_iEM-67" value="" style="endArrow=none;dashed=1;html=1;strokeWidth=2;rounded=1;curved=0;strokeColor=#FFB570;" edge="1" parent="1">
          <mxGeometry width="50" height="50" relative="1" as="geometry">
            <mxPoint x="239" y="570" as="sourcePoint" />
            <mxPoint x="239" y="20" as="targetPoint" />
          </mxGeometry>
        </mxCell>
        <mxCell id="01jZKqPiucmeH9G5_iEM-68" value="" style="endArrow=none;dashed=1;html=1;strokeWidth=2;rounded=1;curved=0;strokeColor=#FFB570;" edge="1" parent="1">
          <mxGeometry width="50" height="50" relative="1" as="geometry">
            <mxPoint x="439" y="570" as="sourcePoint" />
            <mxPoint x="439" y="20" as="targetPoint" />
          </mxGeometry>
        </mxCell>
        <mxCell id="01jZKqPiucmeH9G5_iEM-69" value="" style="endArrow=none;dashed=1;html=1;strokeWidth=2;rounded=1;curved=0;strokeColor=#FFB570;" edge="1" parent="1">
          <mxGeometry width="50" height="50" relative="1" as="geometry">
            <mxPoint x="610" y="570" as="sourcePoint" />
            <mxPoint x="610" y="20" as="targetPoint" />
          </mxGeometry>
        </mxCell>
        <mxCell id="01jZKqPiucmeH9G5_iEM-70" value="" style="endArrow=none;dashed=1;html=1;strokeWidth=2;rounded=1;curved=0;strokeColor=#FFB570;" edge="1" parent="1">
          <mxGeometry width="50" height="50" relative="1" as="geometry">
            <mxPoint x="761" y="570" as="sourcePoint" />
            <mxPoint x="761" y="20" as="targetPoint" />
          </mxGeometry>
        </mxCell>
        <mxCell id="01jZKqPiucmeH9G5_iEM-71" value="" style="endArrow=none;dashed=1;html=1;strokeWidth=2;rounded=1;curved=0;strokeColor=#FFB570;" edge="1" parent="1">
          <mxGeometry width="50" height="50" relative="1" as="geometry">
            <mxPoint x="948.75" y="570" as="sourcePoint" />
            <mxPoint x="948.75" y="20" as="targetPoint" />
          </mxGeometry>
        </mxCell>
        <mxCell id="01jZKqPiucmeH9G5_iEM-72" value="" style="outlineConnect=0;dashed=0;verticalLabelPosition=bottom;verticalAlign=top;align=center;html=1;shape=mxgraph.aws3.management_console;fillColor=#D2D3D3;gradientColor=none;" vertex="1" parent="1">
          <mxGeometry x="110" y="249.5" width="63" height="63" as="geometry" />
        </mxCell>
        <mxCell id="01jZKqPiucmeH9G5_iEM-73" value="" style="edgeStyle=orthogonalEdgeStyle;html=1;endArrow=block;elbow=vertical;startArrow=none;endFill=1;strokeColor=#545B64;rounded=0;" edge="1" parent="1">
          <mxGeometry width="100" relative="1" as="geometry">
            <mxPoint x="176" y="280.57" as="sourcePoint" />
            <mxPoint x="266" y="280.57" as="targetPoint" />
          </mxGeometry>
        </mxCell>
        <mxCell id="01jZKqPiucmeH9G5_iEM-75" value="Client" style="text;html=1;align=center;verticalAlign=middle;resizable=0;points=[];autosize=1;strokeColor=none;fillColor=none;" vertex="1" parent="1">
          <mxGeometry x="116.5" y="314" width="50" height="30" as="geometry" />
        </mxCell>
        <mxCell id="01jZKqPiucmeH9G5_iEM-76" value="Extract" style="text;html=1;align=center;verticalAlign=middle;resizable=0;points=[];autosize=1;strokeColor=none;fillColor=none;fontSize=14;" vertex="1" parent="1">
          <mxGeometry x="294" y="20" width="70" height="30" as="geometry" />
        </mxCell>
        <mxCell id="01jZKqPiucmeH9G5_iEM-77" value="Transform" style="text;html=1;align=center;verticalAlign=middle;resizable=0;points=[];autosize=1;strokeColor=none;fillColor=none;fontSize=14;" vertex="1" parent="1">
          <mxGeometry x="464" y="20" width="90" height="30" as="geometry" />
        </mxCell>
        <mxCell id="01jZKqPiucmeH9G5_iEM-78" value="Load" style="text;html=1;align=center;verticalAlign=middle;resizable=0;points=[];autosize=1;strokeColor=none;fillColor=none;fontSize=14;" vertex="1" parent="1">
          <mxGeometry x="655" y="20" width="50" height="30" as="geometry" />
        </mxCell>
        <mxCell id="01jZKqPiucmeH9G5_iEM-80" value="Alert" style="text;html=1;align=center;verticalAlign=middle;resizable=0;points=[];autosize=1;strokeColor=none;fillColor=none;fontSize=14;" vertex="1" parent="1">
          <mxGeometry x="833" y="20" width="50" height="30" as="geometry" />
        </mxCell>
      </root>
    </mxGraphModel>
  </diagram>
</mxfile>
